<mxfile host="app.diagrams.net" modified="2021-07-02T17:16:54.196Z" agent="5.0 (Macintosh; Intel Mac OS X 10_15_7) AppleWebKit/537.36 (KHTML, like Gecko) Chrome/91.0.4472.114 Safari/537.36" etag="sYZuIgKxTpL55NEbzomc" version="14.8.3" type="github">
  <diagram id="K0j5OCTELVZv-EC5O6D2" name="Page-1">
    <mxGraphModel dx="1512" dy="746" grid="1" gridSize="10" guides="1" tooltips="1" connect="1" arrows="1" fold="1" page="1" pageScale="1" pageWidth="1500" pageHeight="1500" math="0" shadow="0">
      <root>
        <mxCell id="0" />
        <mxCell id="1" parent="0" />
        <mxCell id="yJGauPnEhfRK39gL0J9s-20" value="School/ Cda" style="points=[];aspect=fixed;html=1;align=center;shadow=0;dashed=0;image;image=img/lib/allied_telesis/buildings/School_Building.svg;labelBackgroundColor=white;fillColor=#FFFF99;" parent="1" vertex="1">
          <mxGeometry x="100" y="497.91" width="100" height="101.09" as="geometry" />
        </mxCell>
        <mxCell id="yJGauPnEhfRK39gL0J9s-29" value="07 - Loan Period" style="shape=note;whiteSpace=wrap;html=1;backgroundOutline=1;darkOpacity=0.05;labelBackgroundColor=white;fillColor=#FFF2CC;verticalAlign=middle;fontSize=11;" parent="1" vertex="1">
          <mxGeometry x="399" y="380" width="72" height="77" as="geometry" />
        </mxCell>
        <mxCell id="yJGauPnEhfRK39gL0J9s-30" value="08 = Loan Cancel/&amp;nbsp;&lt;br style=&quot;font-size: 11px;&quot;&gt;Reinstate" style="shape=note;whiteSpace=wrap;html=1;backgroundOutline=1;darkOpacity=0.05;labelBackgroundColor=white;fillColor=#B9E0A5;verticalAlign=middle;fontSize=11;" parent="1" vertex="1">
          <mxGeometry x="489" y="380" width="72" height="77" as="geometry" />
        </mxCell>
        <mxCell id="yJGauPnEhfRK39gL0J9s-31" value="09 - Disb&lt;br style=&quot;font-size: 11px;&quot;&gt;Cancel/ Change" style="shape=note;whiteSpace=wrap;html=1;backgroundOutline=1;darkOpacity=0.05;labelBackgroundColor=white;fillColor=#B9E0A5;verticalAlign=middle;fontSize=11;" parent="1" vertex="1">
          <mxGeometry x="582" y="380" width="72" height="77" as="geometry" />
        </mxCell>
        <mxCell id="yJGauPnEhfRK39gL0J9s-32" value="24 - Loan&amp;nbsp;&lt;br style=&quot;font-size: 11px;&quot;&gt;Increase" style="shape=note;whiteSpace=wrap;html=1;backgroundOutline=1;darkOpacity=0.05;labelBackgroundColor=white;fillColor=#FFF2CC;verticalAlign=middle;fontSize=11;" parent="1" vertex="1">
          <mxGeometry x="670" y="380" width="72" height="77" as="geometry" />
        </mxCell>
        <mxCell id="yJGauPnEhfRK39gL0J9s-33" value="02 - Borrower&lt;br style=&quot;font-size: 11px;&quot;&gt;Info" style="shape=note;whiteSpace=wrap;html=1;backgroundOutline=1;darkOpacity=0.05;labelBackgroundColor=white;fillColor=#FFE599;verticalAlign=middle;fontSize=11;" parent="1" vertex="1">
          <mxGeometry x="399" y="499.2" width="72" height="77" as="geometry" />
        </mxCell>
        <mxCell id="yJGauPnEhfRK39gL0J9s-34" value="07-Loan&lt;br style=&quot;font-size: 11px;&quot;&gt;Period" style="shape=note;whiteSpace=wrap;html=1;backgroundOutline=1;darkOpacity=0.05;labelBackgroundColor=white;fillColor=#FFF2CC;verticalAlign=middle;size=39;fontSize=11;" parent="1" vertex="1">
          <mxGeometry x="399" y="620" width="72" height="77" as="geometry" />
        </mxCell>
        <mxCell id="yJGauPnEhfRK39gL0J9s-35" value="10 - Disbursement&lt;br style=&quot;font-size: 11px;&quot;&gt;Change" style="shape=note;whiteSpace=wrap;html=1;backgroundOutline=1;darkOpacity=0.05;labelBackgroundColor=white;fillColor=#FFB570;verticalAlign=middle;fontSize=11;" parent="1" vertex="1">
          <mxGeometry x="489" y="620" width="72" height="77" as="geometry" />
        </mxCell>
        <mxCell id="yJGauPnEhfRK39gL0J9s-36" value="11- Post&amp;nbsp;&lt;br style=&quot;font-size: 11px;&quot;&gt;Disbursement&lt;br style=&quot;font-size: 11px;&quot;&gt;Refund" style="shape=note;whiteSpace=wrap;html=1;backgroundOutline=1;darkOpacity=0.05;labelBackgroundColor=white;fillColor=#FFB570;verticalAlign=middle;fontSize=11;" parent="1" vertex="1">
          <mxGeometry x="580" y="620" width="72" height="77" as="geometry" />
        </mxCell>
        <mxCell id="yJGauPnEhfRK39gL0J9s-38" value="12- Refund/&lt;br style=&quot;font-size: 11px;&quot;&gt;Correction" style="shape=note;whiteSpace=wrap;html=1;backgroundOutline=1;darkOpacity=0.05;labelBackgroundColor=white;fillColor=#FFB570;verticalAlign=middle;size=39;fontSize=11;" parent="1" vertex="1">
          <mxGeometry x="399" y="732" width="72" height="77" as="geometry" />
        </mxCell>
        <mxCell id="yJGauPnEhfRK39gL0J9s-39" value="24 - Loan&amp;nbsp;&lt;br style=&quot;font-size: 11px;&quot;&gt;Increase" style="shape=note;whiteSpace=wrap;html=1;backgroundOutline=1;darkOpacity=0.05;labelBackgroundColor=white;fillColor=#FFF2CC;verticalAlign=middle;fontSize=11;" parent="1" vertex="1">
          <mxGeometry x="670" y="620" width="72" height="77" as="geometry" />
        </mxCell>
        <mxCell id="yJGauPnEhfRK39gL0J9s-40" value="Pre Disbursement&lt;br style=&quot;font-size: 10px;&quot;&gt;Changes" style="outlineConnect=0;fontColor=#232F3E;gradientColor=none;fillColor=#277116;strokeColor=none;dashed=0;verticalLabelPosition=bottom;verticalAlign=top;align=center;html=1;fontSize=10;fontStyle=0;aspect=fixed;pointerEvents=1;shape=mxgraph.aws4.file_system;labelBackgroundColor=white;" parent="1" vertex="1">
          <mxGeometry x="240" y="370" width="78" height="73" as="geometry" />
        </mxCell>
        <mxCell id="yJGauPnEhfRK39gL0J9s-41" value="Post Disbursement&lt;br style=&quot;font-size: 10px;&quot;&gt;Changes" style="outlineConnect=0;fontColor=#232F3E;gradientColor=none;fillColor=#FFB570;strokeColor=none;dashed=0;verticalLabelPosition=bottom;verticalAlign=top;align=center;html=1;fontSize=10;fontStyle=0;aspect=fixed;pointerEvents=1;shape=mxgraph.aws4.file_system;labelBackgroundColor=white;" parent="1" vertex="1">
          <mxGeometry x="240" y="620" width="78" height="73" as="geometry" />
        </mxCell>
        <mxCell id="yJGauPnEhfRK39gL0J9s-43" value="" style="endArrow=classic;html=1;fontSize=11;exitX=0.58;exitY=-0.029;exitDx=0;exitDy=0;exitPerimeter=0;" parent="1" source="yJGauPnEhfRK39gL0J9s-20" target="yJGauPnEhfRK39gL0J9s-40" edge="1">
          <mxGeometry width="50" height="50" relative="1" as="geometry">
            <mxPoint x="170" y="500" as="sourcePoint" />
            <mxPoint x="230" y="490" as="targetPoint" />
            <Array as="points">
              <mxPoint x="180" y="480" />
            </Array>
          </mxGeometry>
        </mxCell>
        <mxCell id="yJGauPnEhfRK39gL0J9s-44" value="" style="endArrow=classic;html=1;fontSize=11;" parent="1" target="yJGauPnEhfRK39gL0J9s-41" edge="1">
          <mxGeometry width="50" height="50" relative="1" as="geometry">
            <mxPoint x="160" y="576" as="sourcePoint" />
            <mxPoint x="210" y="660" as="targetPoint" />
          </mxGeometry>
        </mxCell>
        <mxCell id="yJGauPnEhfRK39gL0J9s-47" value="ChangeFileProcessed" style="whiteSpace=wrap;html=1;shape=mxgraph.basic.rectCallout;dx=30;dy=15;boundedLbl=1;labelBackgroundColor=white;fontSize=11;fillColor=#E6E6E6;verticalAlign=middle;" parent="1" vertex="1">
          <mxGeometry x="480" y="320" width="180" height="40" as="geometry" />
        </mxCell>
        <mxCell id="yJGauPnEhfRK39gL0J9s-48" value="" style="shape=flexArrow;endArrow=classic;html=1;fontSize=11;" parent="1" edge="1">
          <mxGeometry width="50" height="50" relative="1" as="geometry">
            <mxPoint x="630" y="315" as="sourcePoint" />
            <mxPoint x="630" y="265" as="targetPoint" />
          </mxGeometry>
        </mxCell>
        <mxCell id="yJGauPnEhfRK39gL0J9s-49" value="Validation of&amp;nbsp;&lt;br&gt;program rules" style="shape=callout;whiteSpace=wrap;html=1;perimeter=calloutPerimeter;labelBackgroundColor=white;fontSize=11;fillColor=#FF6666;verticalAlign=middle;size=30;position=0.08;position2=1;" parent="1" vertex="1">
          <mxGeometry x="471" y="130" width="120" height="80" as="geometry" />
        </mxCell>
        <mxCell id="yJGauPnEhfRK39gL0J9s-51" value="Implementation&amp;nbsp;&lt;br&gt;and/or&lt;br&gt;Disbursement Service" style="outlineConnect=0;dashed=0;verticalLabelPosition=bottom;verticalAlign=top;align=center;html=1;shape=mxgraph.aws3.endpoints;fillColor=#F58534;gradientColor=none;labelBackgroundColor=white;fontSize=11;" parent="1" vertex="1">
          <mxGeometry x="610" y="138" width="69" height="72" as="geometry" />
        </mxCell>
        <mxCell id="yJGauPnEhfRK39gL0J9s-52" value="CommonLineException" style="whiteSpace=wrap;html=1;shape=mxgraph.basic.rectCallout;dx=30;dy=15;boundedLbl=1;labelBackgroundColor=white;fontSize=11;fillColor=#E6E6E6;verticalAlign=middle;" parent="1" vertex="1">
          <mxGeometry x="500" y="517.7" width="150" height="40" as="geometry" />
        </mxCell>
        <mxCell id="yJGauPnEhfRK39gL0J9s-53" value="ChangeFile&lt;br&gt;Response" style="shape=document;whiteSpace=wrap;html=1;boundedLbl=1;labelBackgroundColor=white;fontSize=11;fillColor=#99CCFF;verticalAlign=middle;" parent="1" vertex="1">
          <mxGeometry x="1230" y="620" width="120" height="80" as="geometry" />
        </mxCell>
        <mxCell id="yJGauPnEhfRK39gL0J9s-55" value="" style="endArrow=classic;html=1;fontSize=11;" parent="1" source="yJGauPnEhfRK39gL0J9s-53" edge="1">
          <mxGeometry width="50" height="50" relative="1" as="geometry">
            <mxPoint x="740" y="950" as="sourcePoint" />
            <mxPoint x="150" y="630" as="targetPoint" />
            <Array as="points">
              <mxPoint x="1083" y="850" />
              <mxPoint x="150" y="850" />
            </Array>
          </mxGeometry>
        </mxCell>
        <mxCell id="yJGauPnEhfRK39gL0J9s-66" value="" style="shape=ext;double=1;whiteSpace=wrap;html=1;aspect=fixed;labelBackgroundColor=white;fontSize=11;fillColor=#FFFFFF;verticalAlign=middle;" parent="1" vertex="1">
          <mxGeometry x="860" y="430" width="190" height="190" as="geometry" />
        </mxCell>
        <mxCell id="yJGauPnEhfRK39gL0J9s-62" value="" style="shape=ellipse;labelPosition=right;align=left;strokeColor=none;fillColor=#B0B0B0;opacity=10;labelBackgroundColor=white;fontSize=9;html=1;" parent="1" vertex="1">
          <mxGeometry x="860" y="572" width="48" height="48" as="geometry" />
        </mxCell>
        <mxCell id="yJGauPnEhfRK39gL0J9s-63" value="Reject Changes" style="dashed=0;labelPosition=right;align=left;shape=mxgraph.gmdl.radiobutton;strokeColor=#676767;fillColor=#676767;strokeWidth=2;fontSize=9;" parent="yJGauPnEhfRK39gL0J9s-62" vertex="1">
          <mxGeometry x="16" y="16" width="16" height="16" as="geometry" />
        </mxCell>
        <mxCell id="yJGauPnEhfRK39gL0J9s-65" value="&lt;table border=&quot;1&quot; width=&quot;100%&quot; cellpadding=&quot;4&quot; style=&quot;width: 100% ; height: 100% ; border-collapse: collapse ; font-size: 9px&quot;&gt;&lt;tbody style=&quot;font-size: 9px&quot;&gt;&lt;tr style=&quot;background-color: rgb(167 , 201 , 66) ; color: rgb(255 , 255 , 255) ; border: 1px solid rgb(152 , 191 , 33) ; font-size: 9px&quot;&gt;&lt;th align=&quot;left&quot; style=&quot;font-size: 9px&quot;&gt;Borrower Details&lt;/th&gt;&lt;/tr&gt;&lt;tr style=&quot;border: 1px solid rgb(152 , 191 , 33) ; font-size: 9px&quot;&gt;&lt;td style=&quot;font-size: 9px&quot;&gt;Change Details - 07&lt;/td&gt;&lt;/tr&gt;&lt;tr style=&quot;background-color: rgb(234 , 242 , 211) ; border: 1px solid rgb(152 , 191 , 33) ; font-size: 9px&quot;&gt;&lt;td style=&quot;font-size: 9px&quot;&gt;Change Details - 08&lt;/td&gt;&lt;/tr&gt;&lt;tr style=&quot;border: 1px solid rgb(152 , 191 , 33) ; font-size: 9px&quot;&gt;&lt;td style=&quot;font-size: 9px&quot;&gt;Change Details - 24&lt;/td&gt;&lt;/tr&gt;&lt;/tbody&gt;&lt;/table&gt;" style="text;html=1;strokeColor=#c0c0c0;fillColor=#ffffff;overflow=fill;rounded=0;labelBackgroundColor=white;fontSize=9;verticalAlign=middle;" parent="1" vertex="1">
          <mxGeometry x="870" y="440" width="170" height="123" as="geometry" />
        </mxCell>
        <mxCell id="yJGauPnEhfRK39gL0J9s-60" value="" style="shape=ellipse;labelPosition=right;align=left;strokeColor=none;fillColor=#B0B0B0;opacity=10;labelBackgroundColor=white;fontSize=9;html=1;" parent="1" vertex="1">
          <mxGeometry x="860" y="557" width="48" height="36" as="geometry" />
        </mxCell>
        <mxCell id="yJGauPnEhfRK39gL0J9s-61" value="Accept Changes" style="dashed=0;labelPosition=right;align=left;shape=mxgraph.gmdl.radiobutton;strokeColor=#676767;fillColor=#676767;strokeWidth=2;fontSize=9;" parent="yJGauPnEhfRK39gL0J9s-60" vertex="1">
          <mxGeometry x="16" y="11.999999999999998" width="16" height="11.999999999999998" as="geometry" />
        </mxCell>
        <mxCell id="yJGauPnEhfRK39gL0J9s-72" value="Change Response Accepted" style="whiteSpace=wrap;html=1;shape=mxgraph.basic.rectCallout;dx=30;dy=15;boundedLbl=1;labelBackgroundColor=white;fontSize=11;fillColor=#E6E6E6;verticalAlign=middle;" parent="1" vertex="1">
          <mxGeometry x="1320" y="479.9999999999999" width="150" height="57" as="geometry" />
        </mxCell>
        <mxCell id="yJGauPnEhfRK39gL0J9s-73" value="" style="edgeStyle=segmentEdgeStyle;endArrow=classic;html=1;fontSize=9;" parent="1" edge="1" source="yJGauPnEhfRK39gL0J9s-51">
          <mxGeometry width="50" height="50" relative="1" as="geometry">
            <mxPoint x="780" y="167" as="sourcePoint" />
            <mxPoint x="1210" y="470" as="targetPoint" />
            <Array as="points">
              <mxPoint x="1210" y="186" />
            </Array>
          </mxGeometry>
        </mxCell>
        <mxCell id="4tAncuZE_6ZeGIsPpg4A-23" value="Reject Changes" style="edgeLabel;html=1;align=center;verticalAlign=middle;resizable=0;points=[];" vertex="1" connectable="0" parent="yJGauPnEhfRK39gL0J9s-73">
          <mxGeometry x="-0.3884" y="1" relative="1" as="geometry">
            <mxPoint as="offset" />
          </mxGeometry>
        </mxCell>
        <mxCell id="yJGauPnEhfRK39gL0J9s-74" value="" style="shape=flexArrow;endArrow=classic;html=1;fontSize=11;fillColor=#277116;" parent="1" edge="1">
          <mxGeometry width="50" height="50" relative="1" as="geometry">
            <mxPoint x="330" y="418" as="sourcePoint" />
            <mxPoint x="380" y="418" as="targetPoint" />
          </mxGeometry>
        </mxCell>
        <mxCell id="yJGauPnEhfRK39gL0J9s-75" value="" style="shape=flexArrow;endArrow=classic;html=1;fontSize=11;fillColor=#FFB570;" parent="1" edge="1">
          <mxGeometry width="50" height="50" relative="1" as="geometry">
            <mxPoint x="330" y="658" as="sourcePoint" />
            <mxPoint x="380" y="658" as="targetPoint" />
          </mxGeometry>
        </mxCell>
        <mxCell id="yJGauPnEhfRK39gL0J9s-78" value="" style="shape=flexArrow;endArrow=classic;html=1;fontSize=11;" parent="1" edge="1">
          <mxGeometry width="50" height="50" relative="1" as="geometry">
            <mxPoint x="582" y="474.8" as="sourcePoint" />
            <mxPoint x="582" y="504" as="targetPoint" />
          </mxGeometry>
        </mxCell>
        <mxCell id="yJGauPnEhfRK39gL0J9s-79" value="" style="shape=flexArrow;endArrow=classic;html=1;fontSize=11;" parent="1" edge="1">
          <mxGeometry width="50" height="50" relative="1" as="geometry">
            <mxPoint x="582" y="595.09" as="sourcePoint" />
            <mxPoint x="582" y="565.89" as="targetPoint" />
          </mxGeometry>
        </mxCell>
        <mxCell id="4tAncuZE_6ZeGIsPpg4A-1" value="CommonLineException" style="whiteSpace=wrap;html=1;shape=mxgraph.basic.rectCallout;dx=30;dy=15;boundedLbl=1;labelBackgroundColor=white;fontSize=11;fillColor=#E6E6E6;verticalAlign=middle;" vertex="1" parent="1">
          <mxGeometry x="950" y="370" width="160" height="50" as="geometry" />
        </mxCell>
        <mxCell id="4tAncuZE_6ZeGIsPpg4A-2" value="" style="edgeStyle=segmentEdgeStyle;endArrow=classic;html=1;fontSize=9;" edge="1" parent="1" source="yJGauPnEhfRK39gL0J9s-51">
          <mxGeometry width="50" height="50" relative="1" as="geometry">
            <mxPoint x="720" y="200" as="sourcePoint" />
            <mxPoint x="1034" y="360" as="targetPoint" />
            <Array as="points">
              <mxPoint x="645" y="220" />
              <mxPoint x="1035" y="220" />
              <mxPoint x="1035" y="360" />
            </Array>
          </mxGeometry>
        </mxCell>
        <mxCell id="4tAncuZE_6ZeGIsPpg4A-26" value="Send for review" style="edgeLabel;html=1;align=center;verticalAlign=middle;resizable=0;points=[];" vertex="1" connectable="0" parent="4tAncuZE_6ZeGIsPpg4A-2">
          <mxGeometry x="-0.1479" y="-2" relative="1" as="geometry">
            <mxPoint as="offset" />
          </mxGeometry>
        </mxCell>
        <mxCell id="4tAncuZE_6ZeGIsPpg4A-3" value="Change Response Rejected" style="whiteSpace=wrap;html=1;shape=mxgraph.basic.rectCallout;dx=30;dy=15;boundedLbl=1;labelBackgroundColor=white;fontSize=11;fillColor=#E6E6E6;verticalAlign=middle;" vertex="1" parent="1">
          <mxGeometry x="1150" y="480" width="150" height="57" as="geometry" />
        </mxCell>
        <mxCell id="4tAncuZE_6ZeGIsPpg4A-7" value="ChangeFileAccepted" style="whiteSpace=wrap;html=1;shape=mxgraph.basic.rectCallout;dx=30;dy=15;boundedLbl=1;labelBackgroundColor=white;fontSize=11;fillColor=#E6E6E6;verticalAlign=middle;" vertex="1" parent="1">
          <mxGeometry x="720" y="320" width="180" height="40" as="geometry" />
        </mxCell>
        <mxCell id="4tAncuZE_6ZeGIsPpg4A-12" value="" style="shape=flexArrow;endArrow=classic;html=1;fontSize=11;" edge="1" parent="1">
          <mxGeometry width="50" height="50" relative="1" as="geometry">
            <mxPoint x="720" y="310" as="sourcePoint" />
            <mxPoint x="720" y="260" as="targetPoint" />
          </mxGeometry>
        </mxCell>
        <mxCell id="4tAncuZE_6ZeGIsPpg4A-16" value="" style="endArrow=classic;html=1;fontSize=11;exitX=-0.002;exitY=0.57;exitDx=0;exitDy=0;exitPerimeter=0;entryX=0.327;entryY=0.653;entryDx=0;entryDy=0;entryPerimeter=0;" edge="1" parent="1" source="yJGauPnEhfRK39gL0J9s-66" target="4tAncuZE_6ZeGIsPpg4A-7">
          <mxGeometry width="50" height="50" relative="1" as="geometry">
            <mxPoint x="759.9999999999998" y="497.90839" as="sourcePoint" />
            <mxPoint x="842.132159574468" y="438.286426982592" as="targetPoint" />
            <Array as="points">
              <mxPoint x="787" y="538" />
            </Array>
          </mxGeometry>
        </mxCell>
        <mxCell id="4tAncuZE_6ZeGIsPpg4A-17" value="Accept&amp;nbsp;&lt;br&gt;Changes" style="edgeLabel;html=1;align=center;verticalAlign=middle;resizable=0;points=[];" vertex="1" connectable="0" parent="4tAncuZE_6ZeGIsPpg4A-16">
          <mxGeometry x="-0.0339" y="4" relative="1" as="geometry">
            <mxPoint as="offset" />
          </mxGeometry>
        </mxCell>
        <mxCell id="4tAncuZE_6ZeGIsPpg4A-19" value="" style="endArrow=classic;html=1;entryX=0;entryY=0;entryDx=0;entryDy=21;entryPerimeter=0;" edge="1" parent="1" target="4tAncuZE_6ZeGIsPpg4A-3">
          <mxGeometry width="50" height="50" relative="1" as="geometry">
            <mxPoint x="1060" y="501" as="sourcePoint" />
            <mxPoint x="1110" y="510" as="targetPoint" />
          </mxGeometry>
        </mxCell>
        <mxCell id="4tAncuZE_6ZeGIsPpg4A-20" value="Reject&amp;nbsp;&lt;br&gt;Changes" style="edgeLabel;html=1;align=center;verticalAlign=middle;resizable=0;points=[];" vertex="1" connectable="0" parent="4tAncuZE_6ZeGIsPpg4A-19">
          <mxGeometry x="-0.3544" y="3" relative="1" as="geometry">
            <mxPoint as="offset" />
          </mxGeometry>
        </mxCell>
        <mxCell id="4tAncuZE_6ZeGIsPpg4A-21" value="" style="shape=flexArrow;endArrow=classic;html=1;fontSize=11;" edge="1" parent="1">
          <mxGeometry width="50" height="50" relative="1" as="geometry">
            <mxPoint x="1300" y="545" as="sourcePoint" />
            <mxPoint x="1300" y="605" as="targetPoint" />
            <Array as="points">
              <mxPoint x="1300" y="568" />
            </Array>
          </mxGeometry>
        </mxCell>
        <mxCell id="4tAncuZE_6ZeGIsPpg4A-22" value="&lt;p style=&quot;line-height: 0%&quot;&gt;&lt;span&gt;ChangeFileProcessed event&lt;/span&gt;&lt;br&gt;&lt;/p&gt;&lt;p&gt;will contain entire recordset for borrower&lt;/p&gt;&lt;p&gt;&lt;/p&gt;" style="text;html=1;strokeColor=none;fillColor=none;spacing=5;spacingTop=-20;whiteSpace=wrap;overflow=hidden;rounded=0;align=left;" vertex="1" parent="1">
          <mxGeometry x="340" y="260" width="190" height="60" as="geometry" />
        </mxCell>
        <mxCell id="4tAncuZE_6ZeGIsPpg4A-24" value="" style="edgeStyle=segmentEdgeStyle;endArrow=classic;html=1;fontSize=9;" edge="1" parent="1" source="yJGauPnEhfRK39gL0J9s-51">
          <mxGeometry width="50" height="50" relative="1" as="geometry">
            <mxPoint x="709" y="156.95" as="sourcePoint" />
            <mxPoint x="1409" y="470" as="targetPoint" />
            <Array as="points">
              <mxPoint x="1409" y="150" />
            </Array>
          </mxGeometry>
        </mxCell>
        <mxCell id="4tAncuZE_6ZeGIsPpg4A-25" value="Accept Changes" style="edgeLabel;html=1;align=center;verticalAlign=middle;resizable=0;points=[];" vertex="1" connectable="0" parent="4tAncuZE_6ZeGIsPpg4A-24">
          <mxGeometry x="-0.3884" y="1" relative="1" as="geometry">
            <mxPoint as="offset" />
          </mxGeometry>
        </mxCell>
      </root>
    </mxGraphModel>
  </diagram>
</mxfile>
